<svg width="48" height="48" viewBox="0 0 48 48" fill="none" xmlns="http://www.w3.org/2000/svg" xmlns:xlink="http://www.w3.org/1999/xlink">
<path d="M29.89,2.5C27.156,2.5 24.95,2.5 23.216,2.734C21.416,2.974 19.9,3.494 18.696,4.696C17.648,5.746 17.116,7.036 16.838,8.552C16.568,10.026 16.516,11.828 16.504,13.992C16.502,14.39 16.658,14.772 16.938,15.055C17.217,15.338 17.598,15.498 17.996,15.5C18.394,15.502 18.776,15.346 19.059,15.066C19.342,14.787 19.502,14.406 19.504,14.008C19.516,11.822 19.572,10.272 19.788,9.094C19.998,7.962 20.332,7.304 20.818,6.818C21.372,6.264 22.15,5.904 23.618,5.706C25.128,5.504 27.13,5.5 30,5.5L32,5.5C34.872,5.5 36.874,5.504 38.384,5.706C39.852,5.904 40.628,6.266 41.184,6.818C41.736,7.372 42.096,8.148 42.294,9.618C42.498,11.126 42.5,13.13 42.5,16L42.5,32C42.5,34.87 42.498,36.872 42.294,38.384C42.096,39.852 41.736,40.628 41.182,41.182C40.628,41.736 39.852,42.096 38.384,42.294C36.874,42.496 34.872,42.5 32,42.5L30,42.5C27.13,42.5 25.128,42.496 23.616,42.294C22.15,42.096 21.372,41.734 20.818,41.182C20.332,40.694 19.998,40.038 19.788,38.906C19.572,37.728 19.516,36.178 19.504,33.992C19.503,33.795 19.463,33.6 19.387,33.419C19.31,33.237 19.199,33.072 19.059,32.934C18.919,32.795 18.753,32.686 18.571,32.611C18.388,32.537 18.193,32.499 17.996,32.5C17.799,32.501 17.604,32.541 17.423,32.617C17.241,32.694 17.076,32.805 16.938,32.945C16.799,33.085 16.689,33.251 16.615,33.433C16.541,33.616 16.503,33.811 16.504,34.008C16.516,36.172 16.568,37.974 16.838,39.448C17.118,40.964 17.648,42.254 18.698,43.304C19.9,44.508 21.418,45.024 23.218,45.268C24.95,45.5 27.156,45.5 29.89,45.5L32.11,45.5C34.846,45.5 37.05,45.5 38.784,45.268C40.584,45.024 42.1,44.508 43.304,43.304C44.508,42.1 45.024,40.584 45.268,38.784C45.5,37.05 45.5,34.844 45.5,32.11L45.5,15.89C45.5,13.156 45.5,10.95 45.268,9.216C45.026,7.416 44.508,5.9 43.304,4.696C42.1,3.492 40.584,2.976 38.784,2.734C37.05,2.5 34.844,2.5 32.11,2.5L29.89,2.5Z" fill="#3C3C3C"/>
<path d="M29.999,22.5C30.397,22.5 30.778,22.658 31.06,22.939C31.341,23.22 31.499,23.602 31.499,24C31.499,24.398 31.341,24.779 31.06,25.06C30.778,25.342 30.397,25.5 29.999,25.5L8.053,25.5L11.975,28.86C12.278,29.119 12.465,29.487 12.495,29.884C12.526,30.281 12.398,30.673 12.139,30.976C11.88,31.278 11.512,31.465 11.115,31.496C10.718,31.527 10.326,31.399 10.023,31.14L3.023,25.14C2.858,24.999 2.726,24.824 2.636,24.627C2.545,24.431 2.498,24.216 2.498,24C2.498,23.783 2.545,23.569 2.636,23.372C2.726,23.175 2.858,23.001 3.023,22.86L10.023,16.86C10.173,16.732 10.346,16.634 10.534,16.573C10.721,16.512 10.919,16.488 11.115,16.504C11.312,16.519 11.503,16.573 11.679,16.662C11.855,16.751 12.011,16.874 12.139,17.024C12.267,17.173 12.365,17.347 12.426,17.534C12.487,17.722 12.511,17.919 12.495,18.116C12.48,18.312 12.426,18.504 12.337,18.679C12.248,18.855 12.125,19.012 11.975,19.14L8.055,22.5L29.999,22.5Z" fill="#3C3C3C"/>
</svg>
