<svg width="34" height="34" viewBox="0 0 34 34" fill="none" xmlns="http://www.w3.org/2000/svg" xmlns:xlink="http://www.w3.org/1999/xlink">
<path d="M31.75,0.275C31.518,0.043 31.244,-0.141 30.941,-0.266C30.639,-0.392 30.315,-0.457 29.987,-0.457C29.66,-0.457 29.336,-0.392 29.033,-0.266C28.731,-0.141 28.456,0.043 28.225,0.275L16,12.475L3.775,0.25C3.543,0.018 3.268,-0.165 2.966,-0.291C2.664,-0.416 2.339,-0.48 2.012,-0.48C1.685,-0.48 1.361,-0.416 1.058,-0.291C0.756,-0.165 0.481,0.018 0.25,0.25C0.018,0.481 -0.165,0.756 -0.291,1.058C-0.416,1.361 -0.48,1.685 -0.48,2.012C-0.48,2.339 -0.416,2.664 -0.291,2.966C-0.165,3.268 0.018,3.543 0.25,3.775L12.475,16L0.25,28.225C0.018,28.456 -0.165,28.731 -0.291,29.033C-0.416,29.336 -0.48,29.66 -0.48,29.987C-0.48,30.314 -0.416,30.639 -0.291,30.941C-0.165,31.243 0.018,31.518 0.25,31.75C0.481,31.981 0.756,32.165 1.058,32.29C1.361,32.415 1.685,32.48 2.012,32.48C2.339,32.48 2.664,32.415 2.966,32.29C3.268,32.165 3.543,31.981 3.775,31.75L16,19.525L28.225,31.75C28.456,31.981 28.731,32.165 29.033,32.29C29.336,32.415 29.66,32.48 29.987,32.48C30.314,32.48 30.639,32.415 30.941,32.29C31.243,32.165 31.518,31.981 31.75,31.75C31.981,31.518 32.165,31.243 32.29,30.941C32.415,30.639 32.48,30.314 32.48,29.987C32.48,29.66 32.415,29.336 32.29,29.033C32.165,28.731 31.981,28.456 31.75,28.225L19.525,16L31.75,3.775C32.7,2.825 32.7,1.225 31.75,0.275Z" fill="#3C3C3C"/>
</svg>
