<svg width="18" height="20" viewBox="0 0 18 20" fill="none" xmlns="http://www.w3.org/2000/svg" xmlns:xlink="http://www.w3.org/1999/xlink">
<path d="M7.615,2.857L10.385,2.857C10.385,2.478 10.239,2.115 9.979,1.847C9.719,1.579 9.367,1.429 9,1.429C8.633,1.429 8.281,1.579 8.021,1.847C7.761,2.115 7.615,2.478 7.615,2.857ZM6.231,2.857C6.231,2.099 6.523,1.373 7.042,0.837C7.561,0.301 8.266,0 9,0C9.734,0 10.439,0.301 10.958,0.837C11.477,1.373 11.769,2.099 11.769,2.857L17.308,2.857C17.491,2.857 17.667,2.932 17.797,3.066C17.927,3.2 18,3.382 18,3.571C18,3.761 17.927,3.943 17.797,4.076C17.667,4.21 17.491,4.286 17.308,4.286L16.527,4.286L14.858,16.911C14.745,17.767 14.335,18.551 13.705,19.119C13.074,19.687 12.266,20 11.429,20L6.571,20C5.734,20 4.926,19.687 4.295,19.119C3.665,18.551 3.255,17.767 3.142,16.911L1.473,4.286L0.692,4.286C0.509,4.286 0.333,4.21 0.203,4.076C0.073,3.943 0,3.761 0,3.571C0,3.382 0.073,3.2 0.203,3.066C0.333,2.932 0.509,2.857 0.692,2.857L6.231,2.857ZM7.615,7.857C7.615,7.668 7.542,7.486 7.413,7.352C7.283,7.218 7.107,7.143 6.923,7.143C6.739,7.143 6.563,7.218 6.434,7.352C6.304,7.486 6.231,7.668 6.231,7.857L6.231,15C6.231,15.189 6.304,15.371 6.434,15.505C6.563,15.639 6.739,15.714 6.923,15.714C7.107,15.714 7.283,15.639 7.413,15.505C7.542,15.371 7.615,15.189 7.615,15L7.615,7.857ZM11.077,7.143C11.261,7.143 11.437,7.218 11.566,7.352C11.696,7.486 11.769,7.668 11.769,7.857L11.769,15C11.769,15.189 11.696,15.371 11.566,15.505C11.437,15.639 11.261,15.714 11.077,15.714C10.893,15.714 10.717,15.639 10.587,15.505C10.458,15.371 10.385,15.189 10.385,15L10.385,7.857C10.385,7.668 10.458,7.486 10.587,7.352C10.717,7.218 10.893,7.143 11.077,7.143ZM4.514,16.719C4.582,17.232 4.828,17.702 5.206,18.043C5.584,18.384 6.069,18.571 6.571,18.571L11.429,18.571C11.931,18.572 12.416,18.384 12.795,18.043C13.174,17.703 13.42,17.232 13.488,16.719L15.13,4.286L2.87,4.286L4.514,16.719Z" transform="rotate(360 9 10)" fill="#3C3C3C"/>
</svg>
