<svg width="36" height="32" viewBox="0 0 36 32" fill="none" xmlns="http://www.w3.org/2000/svg" xmlns:xlink="http://www.w3.org/1999/xlink">
<path d="M3.882,22.58L3.18,21.867C3.05,21.995 2.958,22.157 2.913,22.334L3.882,22.58ZM2,30L1.031,29.754C0.944,30.095 1.043,30.455 1.29,30.705C1.538,30.954 1.898,31.055 2.239,30.971L2,30ZM9.529,28.145L9.769,29.116C9.943,29.073 10.103,28.983 10.231,28.857L9.529,28.145ZM31.338,6.652L32.04,7.364L32.04,7.364L31.338,6.652ZM31.338,1.405L32.04,0.693L32.04,0.693L31.338,1.405ZM31.015,1.086L31.717,0.374L31.716,0.374L31.015,1.086ZM25.691,1.086L24.989,0.374L24.989,0.374L25.691,1.086ZM23.408,3.316C23.014,2.929 22.381,2.933 21.994,3.327C21.606,3.72 21.611,4.353 22.004,4.741L23.408,3.316ZM27.651,10.306C28.044,10.694 28.678,10.689 29.065,10.296C29.453,9.902 29.448,9.269 29.055,8.882L27.651,10.306ZM18.941,29C18.389,29 17.941,29.448 17.941,30C17.941,30.552 18.389,31 18.941,31L18.941,29ZM34,31C34.552,31 35,30.552 35,30C35,29.448 34.552,29 34,29L34,31ZM2.913,22.334L1.031,29.754L2.969,30.246L4.852,22.825L2.913,22.334ZM2.239,30.971L9.769,29.116L9.29,27.174L1.761,29.029L2.239,30.971ZM10.231,28.857L32.04,7.364L30.636,5.939L8.827,27.433L10.231,28.857ZM32.04,7.364C32.935,6.482 33.441,5.282 33.441,4.029L31.441,4.029C31.441,4.742 31.153,5.43 30.636,5.939L32.04,7.364ZM33.441,4.029C33.441,2.775 32.935,1.575 32.04,0.693L30.636,2.118C31.153,2.627 31.441,3.315 31.441,4.029L33.441,4.029ZM32.04,0.693L31.717,0.374L30.313,1.799L30.636,2.118L32.04,0.693ZM31.716,0.374C30.822,-0.507 29.612,-1 28.353,-1L28.353,1C29.091,1 29.795,1.289 30.313,1.799L31.716,0.374ZM28.353,-1C27.094,-1 25.884,-0.507 24.989,0.374L26.393,1.799C26.91,1.289 27.615,1 28.353,1L28.353,-1ZM24.989,0.374L3.18,21.867L4.584,23.292L26.393,1.799L24.989,0.374ZM22.004,4.741L27.651,10.306L29.055,8.882L23.408,3.316L22.004,4.741ZM18.941,31L34,31L34,29L18.941,29L18.941,31Z" fill="#3C3C3C"/>
</svg>
