<svg width="24" height="20" viewBox="0 0 24 20" fill="none" xmlns="http://www.w3.org/2000/svg" xmlns:xlink="http://www.w3.org/1999/xlink">
<path d="M3.176,13.548L2.489,12.821C2.354,12.949 2.257,13.112 2.21,13.292L3.176,13.548ZM2,18L1.033,17.745C0.943,18.084 1.039,18.446 1.284,18.698C1.529,18.95 1.888,19.054 2.23,18.973L2,18ZM6.706,16.887L6.936,17.86C7.107,17.82 7.265,17.734 7.393,17.613L6.706,16.887ZM20.336,3.991L21.024,4.717L21.024,4.717L20.336,3.991ZM20.336,0.843L21.024,0.117L21.024,0.117L20.336,0.843ZM20.134,0.652L20.821,-0.075L20.821,-0.075L20.134,0.652ZM16.807,0.652L16.12,-0.075L16.12,-0.075L16.807,0.652ZM15.628,1.691C15.227,1.311 14.594,1.329 14.215,1.73C13.835,2.131 13.853,2.764 14.254,3.144L15.628,1.691ZM17.783,6.483C18.185,6.862 18.817,6.845 19.197,6.444C19.577,6.042 19.559,5.409 19.158,5.03L17.783,6.483ZM12.588,17C12.036,17 11.588,17.448 11.588,18C11.588,18.552 12.036,19 12.588,19L12.588,17ZM22,19C22.552,19 23,18.552 23,18C23,17.448 22.552,17 22,17L22,19ZM2.21,13.292L1.033,17.745L2.967,18.255L4.143,13.803L2.21,13.292ZM2.23,18.973L6.936,17.86L6.476,15.914L1.77,17.027L2.23,18.973ZM7.393,17.613L21.024,4.717L19.649,3.265L6.019,16.161L7.393,17.613ZM21.024,4.717C21.658,4.117 22.025,3.291 22.025,2.417L20.025,2.417C20.025,2.724 19.897,3.03 19.649,3.265L21.024,4.717ZM22.025,2.417C22.025,1.543 21.658,0.717 21.024,0.117L19.649,1.57C19.897,1.804 20.025,2.11 20.025,2.417L22.025,2.417ZM21.024,0.117L20.821,-0.075L19.447,1.378L19.649,1.57L21.024,0.117ZM20.821,-0.075C20.189,-0.673 19.342,-1 18.471,-1L18.471,1C18.847,1 19.197,1.142 19.447,1.378L20.821,-0.075ZM18.471,-1C17.599,-1 16.752,-0.673 16.12,-0.075L17.494,1.378C17.744,1.142 18.095,1 18.471,1L18.471,-1ZM16.12,-0.075L2.489,12.821L3.864,14.274L17.494,1.378L16.12,-0.075ZM14.254,3.144L17.783,6.483L19.158,5.03L15.628,1.691L14.254,3.144ZM12.588,19L22,19L22,17L12.588,17L12.588,19Z" fill="#3C3C3C"/>
</svg>
