<svg width="22" height="22" viewBox="0 0 22 22" fill="none" xmlns="http://www.w3.org/2000/svg" xmlns:xlink="http://www.w3.org/1999/xlink">
<path d="M2.75,19.25L22,19.25L22,22L0,22L0,0L2.75,0L2.75,19.25ZM6.188,17.875C5.909,17.876 5.633,17.82 5.376,17.71C5.12,17.601 4.888,17.441 4.695,17.24C4.502,17.039 4.352,16.801 4.253,16.54C4.155,16.279 4.111,16.001 4.123,15.722C4.135,15.444 4.204,15.171 4.324,14.919C4.445,14.668 4.615,14.444 4.825,14.26C5.035,14.077 5.28,13.938 5.545,13.851C5.81,13.765 6.09,13.733 6.368,13.758L8.584,10.064C8.381,9.752 8.267,9.392 8.252,9.021C8.237,8.65 8.322,8.282 8.499,7.955C8.676,7.629 8.938,7.356 9.257,7.166C9.577,6.976 9.941,6.876 10.313,6.876C10.684,6.876 11.048,6.976 11.368,7.166C11.687,7.356 11.949,7.629 12.126,7.955C12.303,8.282 12.388,8.65 12.373,9.021C12.358,9.392 12.244,9.752 12.041,10.064L14.257,13.758C14.363,13.749 14.468,13.748 14.574,13.755L18.234,7.351C17.971,6.965 17.846,6.502 17.88,6.037C17.914,5.572 18.105,5.132 18.422,4.789C18.738,4.446 19.161,4.221 19.622,4.15C20.083,4.078 20.555,4.165 20.96,4.397C21.365,4.628 21.68,4.99 21.853,5.423C22.026,5.857 22.047,6.336 21.912,6.782C21.778,7.229 21.496,7.617 21.112,7.883C20.729,8.149 20.267,8.277 19.801,8.246L16.141,14.651C16.351,14.959 16.474,15.319 16.496,15.691C16.518,16.064 16.438,16.436 16.266,16.767C16.093,17.098 15.834,17.376 15.515,17.571C15.197,17.766 14.832,17.871 14.459,17.875C14.085,17.879 13.718,17.781 13.396,17.593C13.073,17.404 12.808,17.132 12.629,16.805C12.449,16.477 12.362,16.107 12.376,15.734C12.39,15.361 12.505,14.999 12.709,14.686L10.493,10.992C10.373,11.003 10.252,11.003 10.132,10.992L7.916,14.686C8.119,14.998 8.234,15.358 8.249,15.729C8.264,16.1 8.178,16.469 8.001,16.795C7.824,17.122 7.562,17.395 7.243,17.585C6.924,17.775 6.559,17.875 6.188,17.875Z" fill="#3C3C3C"/>
</svg>
