<svg width="30" height="34" viewBox="0 0 30 34" fill="none" xmlns="http://www.w3.org/2000/svg" xmlns:xlink="http://www.w3.org/1999/xlink">
<path d="M12.692,4.857L17.308,4.857C17.308,4.213 17.065,3.595 16.632,3.14C16.199,2.684 15.612,2.429 15,2.429C14.388,2.429 13.801,2.684 13.368,3.14C12.935,3.595 12.692,4.213 12.692,4.857ZM10.385,4.857C10.385,3.569 10.871,2.334 11.736,1.423C12.602,0.512 13.776,0 15,0C16.224,0 17.398,0.512 18.264,1.423C19.129,2.334 19.615,3.569 19.615,4.857L28.846,4.857C29.152,4.857 29.446,4.985 29.662,5.213C29.878,5.441 30,5.749 30,6.071C30,6.393 29.878,6.702 29.662,6.93C29.446,7.158 29.152,7.286 28.846,7.286L27.545,7.286L24.764,28.749C24.575,30.204 23.892,31.537 22.841,32.503C21.79,33.468 20.443,34 19.048,34L10.952,34C9.557,34 8.21,33.468 7.159,32.503C6.108,31.537 5.425,30.204 5.236,28.749L2.455,7.286L1.154,7.286C0.848,7.286 0.554,7.158 0.338,6.93C0.122,6.702 0,6.393 0,6.071C0,5.749 0.122,5.441 0.338,5.213C0.554,4.985 0.848,4.857 1.154,4.857L10.385,4.857ZM12.692,13.357C12.692,13.035 12.571,12.726 12.354,12.499C12.138,12.271 11.844,12.143 11.538,12.143C11.232,12.143 10.939,12.271 10.723,12.499C10.506,12.726 10.385,13.035 10.385,13.357L10.385,25.5C10.385,25.822 10.506,26.131 10.723,26.359C10.939,26.586 11.232,26.714 11.538,26.714C11.844,26.714 12.138,26.586 12.354,26.359C12.571,26.131 12.692,25.822 12.692,25.5L12.692,13.357ZM18.462,12.143C18.768,12.143 19.061,12.271 19.277,12.499C19.494,12.726 19.615,13.035 19.615,13.357L19.615,25.5C19.615,25.822 19.494,26.131 19.277,26.359C19.061,26.586 18.768,26.714 18.462,26.714C18.156,26.714 17.862,26.586 17.646,26.359C17.429,26.131 17.308,25.822 17.308,25.5L17.308,13.357C17.308,13.035 17.429,12.726 17.646,12.499C17.862,12.271 18.156,12.143 18.462,12.143ZM7.523,28.422C7.636,29.294 8.046,30.094 8.677,30.673C9.307,31.252 10.115,31.571 10.952,31.571L19.048,31.571C19.885,31.572 20.694,31.253 21.325,30.674C21.956,30.095 22.366,29.295 22.479,28.422L25.216,7.286L4.784,7.286L7.523,28.422Z" fill="#3C3C3C" fill-opacity="0.235"/>
</svg>
